<svg xmlns:xlink="http://www.w3.org/1999/xlink" viewBox="0 0 116 45" fill="none" xmlns="http://www.w3.org/2000/svg" width="159"  height="62" ><path d="M30.8032 0H23.5903V36.2469H30.8032V0Z" fill="#FFFFFF"></path><path fill-rule="evenodd" clip-rule="evenodd" d="M0 0H7.21288V36.2469H0V0ZM7.21297 14.7849H23.5904C23.5904 18.0112 20.9599 20.5923 17.7353 20.5923H7.21297V14.7849Z" fill="#FFFFFF"></path><path d="M35.2441 45V39.6976H37.8747C40.1941 39.6976 41.2124 39.7537 42.4004 36.8921L42.7116 36.1347L32.3307 9.34227H39.9396L46.0776 28.7282L52.3853 9.34227H59.4285L49.5002 35.4333C46.2756 43.7936 44.9179 44.9719 38.1576 44.9719H35.2441V45Z" fill="#FFFFFF"></path><path d="M65.4251 24.6882C65.8211 29.2892 68.9608 31.5336 72.2702 31.5336C74.4483 31.5336 76.5414 30.7761 77.9557 28.4476H85.1403C83.6695 32.4594 79.7377 36.8921 72.3268 36.8921C63.6148 36.8921 58.5233 30.4395 58.5233 22.6963C58.5233 14.7007 64.1239 8.75308 72.1288 8.75308C80.5014 8.75308 85.6777 15.2057 85.4232 24.6882H65.4251ZM65.5382 19.947H78.38C78.2386 15.4021 75.014 13.803 72.0722 13.803C69.4699 13.803 66.0756 15.4021 65.5382 19.947Z" fill="#FFFFFF"></path><path d="M103.696 15.9913C102.677 15.851 101.829 15.851 100.811 15.851C97.388 15.851 95.1252 17.1135 95.1252 22.1633V36.2749H88.1669V9.34227H95.012V14.0555C96.5677 10.717 99.0003 9.39838 102.168 9.39838C102.621 9.39838 103.215 9.45449 103.667 9.5106V15.9913H103.696Z" fill="#FFFFFF"></path><path d="M111.022 9.87531C108.278 9.87531 106.043 7.65898 106.043 4.93766C106.043 2.21633 108.278 0 111.022 0C113.765 0 116 2.21633 116 4.93766C116 7.65898 113.765 9.87531 111.022 9.87531ZM111.022 0.841646C108.731 0.841646 106.892 2.69327 106.892 4.93766C106.892 7.2101 108.759 9.03367 111.022 9.03367C113.313 9.03367 115.152 7.18204 115.152 4.93766C115.152 2.66521 113.285 0.841646 111.022 0.841646Z" fill="#FFFFFF"></path><path d="M111.163 5.38653H110.937H110.173V7.21009H109.24V2.58104H110.767C112.295 2.58104 112.889 3.00186 112.889 3.98378C112.889 4.51682 112.634 4.9657 112.04 5.19014L113.087 7.18204H112.068L111.163 5.38653ZM110.173 3.28241V4.68515H110.937C111.672 4.68515 111.955 4.46072 111.955 3.98378C111.955 3.45074 111.503 3.28241 110.88 3.28241H110.173Z" fill="#FFFFFF"></path></svg>